<svg width="321" height="246" viewBox="0 0 321 246" fill="none" xmlns="http://www.w3.org/2000/svg">
<g clip-path="url(#clip0_10_27)">
<path d="M320.927 122.074L198.422 -2L75.9169 122.074L198.422 246.148L320.927 122.074Z" fill="#FF685F"/>
<path d="M240.253 122.074L121.627 1.92822L3.00064 122.074L121.627 242.22L240.253 122.074Z" stroke="#FF685F" stroke-width="3.5"/>
<path d="M118.008 120.593C118.008 117.032 118.793 113.852 120.363 111.052C121.967 108.217 124.135 106.022 126.865 104.467C129.629 102.877 132.718 102.081 136.131 102.081C140.125 102.081 143.623 103.119 146.626 105.193C149.63 107.267 151.729 110.136 152.924 113.8H144.681C143.862 112.071 142.702 110.775 141.2 109.911C139.732 109.047 138.025 108.615 136.08 108.615C133.998 108.615 132.138 109.116 130.5 110.119C128.896 111.086 127.633 112.469 126.711 114.267C125.824 116.064 125.38 118.173 125.38 120.593C125.38 122.978 125.824 125.086 126.711 126.919C127.633 128.716 128.896 130.116 130.5 131.119C132.138 132.086 133.998 132.57 136.08 132.57C138.025 132.57 139.732 132.138 141.2 131.274C142.702 130.375 143.862 129.062 144.681 127.333H152.924C151.729 131.032 149.63 133.919 146.626 135.993C143.657 138.032 140.159 139.052 136.131 139.052C132.718 139.052 129.629 138.274 126.865 136.719C124.135 135.129 121.967 132.933 120.363 130.133C118.793 127.333 118.008 124.153 118.008 120.593ZM185.09 110.015V138.741H177.871V135.111C176.949 136.356 175.738 137.341 174.236 138.067C172.769 138.758 171.164 139.104 169.424 139.104C167.205 139.104 165.243 138.637 163.536 137.704C161.829 136.736 160.482 135.336 159.492 133.504C158.536 131.637 158.058 129.425 158.058 126.867V110.015H165.226V125.83C165.226 128.111 165.789 129.874 166.915 131.119C168.041 132.329 169.577 132.933 171.523 132.933C173.502 132.933 175.055 132.329 176.182 131.119C177.308 129.874 177.871 128.111 177.871 125.83V110.015H185.09ZM198.598 114.215C199.519 112.832 200.782 111.709 202.386 110.844C204.025 109.98 205.884 109.548 207.967 109.548C210.39 109.548 212.574 110.153 214.52 111.363C216.499 112.573 218.052 114.301 219.179 116.548C220.339 118.76 220.919 121.336 220.919 124.274C220.919 127.212 220.339 129.822 219.179 132.104C218.052 134.351 216.499 136.096 214.52 137.341C212.574 138.585 210.39 139.207 207.967 139.207C205.85 139.207 203.99 138.793 202.386 137.963C200.816 137.099 199.553 135.993 198.598 134.644V138.741H191.43V100.37H198.598V114.215ZM213.598 124.274C213.598 122.546 213.24 121.059 212.523 119.815C211.84 118.536 210.919 117.568 209.758 116.911C208.632 116.254 207.403 115.926 206.072 115.926C204.775 115.926 203.547 116.271 202.386 116.963C201.26 117.62 200.338 118.588 199.622 119.867C198.939 121.146 198.598 122.649 198.598 124.378C198.598 126.106 198.939 127.61 199.622 128.889C200.338 130.168 201.26 131.153 202.386 131.844C203.547 132.501 204.775 132.83 206.072 132.83C207.403 132.83 208.632 132.484 209.758 131.793C210.919 131.101 211.84 130.116 212.523 128.837C213.24 127.558 213.598 126.037 213.598 124.274ZM251.762 123.756C251.762 124.793 251.694 125.726 251.558 126.556H230.823C230.994 128.63 231.71 130.254 232.973 131.43C234.236 132.605 235.789 133.193 237.632 133.193C240.294 133.193 242.189 132.034 243.315 129.719H251.046C250.226 132.484 248.656 134.766 246.336 136.563C244.015 138.326 241.165 139.207 237.786 139.207C235.055 139.207 232.598 138.603 230.414 137.393C228.263 136.148 226.574 134.403 225.345 132.156C224.15 129.909 223.553 127.316 223.553 124.378C223.553 121.405 224.15 118.795 225.345 116.548C226.539 114.301 228.212 112.573 230.362 111.363C232.513 110.153 234.987 109.548 237.786 109.548C240.482 109.548 242.888 110.136 245.004 111.311C247.155 112.486 248.81 114.163 249.97 116.341C251.165 118.484 251.762 120.956 251.762 123.756ZM244.339 121.681C244.305 119.815 243.639 118.329 242.342 117.222C241.045 116.081 239.458 115.511 237.581 115.511C235.806 115.511 234.304 116.064 233.076 117.17C231.881 118.242 231.147 119.746 230.874 121.681H244.339ZM267.116 139.207C264.795 139.207 262.713 138.793 260.87 137.963C259.027 137.099 257.559 135.941 256.467 134.489C255.409 133.037 254.829 131.43 254.727 129.667H261.945C262.082 130.773 262.611 131.689 263.532 132.415C264.488 133.141 265.665 133.504 267.065 133.504C268.43 133.504 269.488 133.227 270.239 132.674C271.024 132.121 271.416 131.412 271.416 130.548C271.416 129.615 270.939 128.923 269.983 128.474C269.061 127.99 267.577 127.471 265.529 126.919C263.413 126.4 261.672 125.864 260.307 125.311C258.976 124.758 257.815 123.911 256.826 122.77C255.87 121.63 255.392 120.091 255.392 118.156C255.392 116.566 255.836 115.114 256.723 113.8C257.645 112.486 258.941 111.449 260.614 110.689C262.32 109.929 264.317 109.548 266.604 109.548C269.983 109.548 272.679 110.412 274.693 112.141C276.707 113.834 277.816 116.133 278.021 119.037H271.161C271.058 117.896 270.58 116.997 269.727 116.341C268.908 115.649 267.798 115.304 266.399 115.304C265.102 115.304 264.095 115.546 263.379 116.03C262.696 116.514 262.355 117.188 262.355 118.052C262.355 119.02 262.832 119.763 263.788 120.281C264.744 120.766 266.229 121.267 268.242 121.785C270.29 122.304 271.98 122.84 273.311 123.393C274.642 123.946 275.785 124.81 276.741 125.985C277.73 127.126 278.242 128.647 278.277 130.548C278.277 132.207 277.816 133.694 276.894 135.007C276.007 136.321 274.71 137.358 273.004 138.119C271.331 138.844 269.369 139.207 267.116 139.207Z" fill="white"/>
<path d="M80.2778 70.5917C81.8221 69.0273 83.5236 67.9643 85.3821 67.4021C87.2163 66.8154 89.1227 66.8154 91.1018 67.4021C93.0809 67.9884 94.9876 69.2106 96.8215 71.0684L108.515 82.911L105.256 86.211L94.0342 74.845C92.0551 72.8406 90.0519 71.8139 88.0245 71.765C85.9975 71.6673 84.1512 72.4617 82.4858 74.1484C80.7722 75.8836 79.9641 77.8269 80.0606 79.978C80.133 82.1047 81.2067 84.2188 83.2823 86.321L94.2152 97.3936L90.9569 100.694L79.7348 89.3276C77.7557 87.3232 75.7524 86.2965 73.7251 86.2476C71.6981 86.1499 69.8517 86.9443 68.1864 88.631C66.4728 90.3662 65.6646 92.3095 65.7612 94.4606C65.8336 96.5873 66.9072 98.7013 68.9829 100.804L79.9158 111.876L76.6213 115.213L56.7832 95.1206L60.0773 91.7839L62.9373 94.6806C62.5512 92.9695 62.6236 91.2828 63.1546 89.621C63.7097 87.9343 64.6509 86.4188 65.9784 85.0743C67.6434 83.3876 69.4897 82.2758 71.5171 81.738C73.5444 81.2002 75.5956 81.3469 77.6712 82.178C76.8265 80.198 76.6575 78.1691 77.1644 76.0913C77.6712 74.0139 78.709 72.1806 80.2778 70.5917ZM92.0427 52.8832C91.4152 53.5188 90.667 53.8365 89.7981 53.8365C88.9292 53.8365 88.181 53.5188 87.5535 52.8832C86.926 52.2476 86.6122 51.4899 86.6122 50.6099C86.6122 49.7299 86.926 48.9721 87.5535 48.3365C88.1569 47.7258 88.881 47.4325 89.7257 47.4569C90.5946 47.4569 91.3427 47.7743 91.9703 48.4099C92.5978 49.0454 92.9115 49.8032 92.9115 50.6832C92.9357 51.5388 92.6461 52.2721 92.0427 52.8832ZM96.8573 54.5332L116.695 74.6254L113.401 77.9617L93.5628 57.8695L96.8573 54.5332ZM111.258 39.2143C113.672 36.7699 116.363 35.5354 119.331 35.511C122.275 35.4621 125.123 36.831 127.875 39.6176L139.568 51.4602L136.31 54.7602L125.087 43.3939C123.108 41.3895 121.105 40.3632 119.078 40.3143C117.026 40.241 115.144 41.0717 113.431 42.8073C111.693 44.5673 110.848 46.5228 110.896 48.6736C110.969 50.8002 112.043 52.9147 114.118 55.0165L125.087 66.1262L121.793 69.4628L101.955 49.3702L105.249 46.0339L108.073 48.8936C107.711 47.2073 107.807 45.5206 108.362 43.8339C108.941 42.1228 109.907 40.5828 111.258 39.2143ZM123.073 21.4551C122.445 22.0906 121.697 22.4084 120.829 22.4084C119.96 22.4084 119.212 22.0906 118.584 21.4551C117.957 20.8195 117.643 20.0617 117.643 19.1821C117.643 18.3021 117.957 17.5443 118.584 16.9088C119.188 16.2976 119.912 16.0043 120.756 16.0288C121.625 16.0288 122.373 16.3465 123.001 16.9821C123.628 17.6176 123.942 18.3754 123.942 19.2554C123.966 20.1106 123.676 20.8439 123.073 21.4551ZM127.888 23.1051L147.726 43.1973L144.432 46.5339L124.594 26.4417L127.888 23.1051Z" fill="#FF685F"/>
</g>
<defs>
<clipPath id="clip0_10_27">
<rect width="321" height="246" fill="white"/>
</clipPath>
</defs>
</svg>
