<?xml version="1.0" encoding="utf-8"?>
<!-- Generator: Adobe Illustrator 24.3.0, SVG Export Plug-In . SVG Version: 6.00 Build 0)  -->
<svg version="1.1" id="Layer_1" xmlns="http://www.w3.org/2000/svg" xmlns:xlink="http://www.w3.org/1999/xlink" x="0px" y="0px"
	 viewBox="0 0 500 500" style="enable-background:new 0 0 500 500;" xml:space="preserve">
<style type="text/css">
	.st0{fill:none;}
	.st1{fill:#F26861;}
	.st2{fill:#F26861;stroke:#F26861;stroke-width:3;stroke-miterlimit:10;}
	.st3{fill:#FFFFFF;}
	.st4{font-family:'Poppins-SemiBold';}
	.st5{font-size:77.5223px;}
	.st6{font-family:'Poppins-Regular';}
	.st7{font-size:77.5222px;}
</style>
<g>
	
		<rect x="59.2" y="122.2" transform="matrix(0.7071 0.7071 -0.7071 0.7071 236.29 -60.9856)" class="st0" width="265.2" height="265.2"/>
	<path class="st1" d="M191.8,445.5L1,254.7L191.8,64l190.8,190.8L191.8,445.5z M7.5,254.7L191.8,439L376,254.7L191.8,70.5L7.5,254.7
		z"/>
</g>
<polygon class="st1" points="309.5,445.6 191.8,445.6 191.8,441 304.9,441 304.9,68.6 191.8,68.6 191.8,64 309.5,64 "/>
<rect x="176.9" y="122.2" transform="matrix(0.7071 0.7071 -0.7071 0.7071 270.7913 -144.2366)" class="st2" width="265.2" height="265.2"/>
<g>
	<line class="st3" x1="4.3" y1="254.7" x2="133.4" y2="254.7"/>
	<rect x="4.3" y="252.4" class="st1" width="129.2" height="4.6"/>
</g>
<text transform="matrix(1 0 0 1 181.0513 279.4336)" class="st3 st4 st5">Cubes</text>
<text transform="matrix(0.7071 -0.7071 0.7071 0.7071 116.8037 246.0559)" class="st1 st6 st7">mini</text>
</svg>
